<svg id="Layer_1" data-name="Layer 1" xmlns="http://www.w3.org/2000/svg" viewBox="0 0 262.41 122.19"><defs><style>.cls-1,.cls-2{fill:#003a2c;}.cls-2{font-size:40px;font-family:TrajanPro3-Bold, "Trajan Pro 3";font-weight:700;letter-spacing:-0.04em;}.cls-3{letter-spacing:-0.03em;}.cls-4{letter-spacing:-0.01em;}.cls-5{letter-spacing:-0.03em;}.cls-6{letter-spacing:-0.05em;}.cls-7{letter-spacing:-0.1em;}.cls-8{letter-spacing:-0.05em;}.cls-9{letter-spacing:-0.02em;}</style></defs><title>LS LOGO legal space</title><path class="cls-1" d="M54.93,121.25l-11-4.4A66.45,66.45,0,0,1,2,54.89V22.13L54.93.93l52.93,21.2V54.89a66.45,66.45,0,0,1-41.93,62ZM8,26.19v28.7a60.47,60.47,0,0,0,38.16,56.39l8.77,3.51,8.77-3.51a60.47,60.47,0,0,0,38.16-56.39V26.19L54.93,7.4Z"/><text class="cls-2" transform="translate(126.93 56.81)">L<tspan class="cls-3" x="25.12" y="0">e</tspan><tspan class="cls-4" x="49.04" y="0">g</tspan><tspan class="cls-5" x="81.72" y="0">al</tspan><tspan class="cls-6"><tspan x="0" y="36">S</tspan><tspan class="cls-7" x="21.04" y="36">p</tspan><tspan class="cls-5" x="44.28" y="36">a</tspan><tspan class="cls-8" x="70.52" y="36">c</tspan><tspan class="cls-9" x="98.68" y="36">e</tspan><tspan class="cls-3" x="122.84" y="36">.</tspan></tspan></text><path class="cls-1" d="M59.85,69.56a22.11,22.11,0,0,1-3.62-3.75,18.4,18.4,0,0,1-5.27.45c-4.56,0-5.61-.28-6.38-1.32-.93-1.16-.77-5.12-.77-10.67V45.09c0-9.07.06-10.17.17-11.93.11-1.93.5-3,2-3.25a15.93,15.93,0,0,1,1.87-.22c.77,0,1.32-.11,1.32-.6,0-.33-.33-.5-1.32-.5-2,0-8.8.17-9.29.17-2.15,0-5-.17-8.14-.17-1.1,0-1.65.11-1.65.55s.55.55,1.16.55a10.13,10.13,0,0,1,2.14.28c1.37.38,1.76,1.32,1.87,2.86.11,1.76.16,2.75.16,11.71v9.68c0,3.4,0,6.7-.16,8.9-.17,4.4-.22,5.39-2.2,5.72a18.07,18.07,0,0,1-1.87.22c-.77,0-1.1.16-1.1.5s.44.6,1.21.6c3,0,6-.17,8.58-.17,5.83,0,10.94.33,18.53.33C58.81,70.32,59.44,70.28,59.85,69.56Z"/><path class="cls-1" d="M69.5,62.63l-2.81-1.87c-3.74-2.53-4.4-4.67-4.4-6.54,0-2.53,1.65-5.06,6.16-5.06,4,0,6.49,1.87,7.54,3.63A7.89,7.89,0,0,1,77,56c.1.88.32,1,.6,1,.44,0,.61-.38.61-1.37,0-4.9.1-6,.21-7.75,0-.45-.16-.61-.71-.77a23.65,23.65,0,0,0-2.7-.67,31,31,0,0,0-6.32-.54c-8.8,0-14,5.11-14,11.43,0,4.84,1.87,8.69,8.58,13.42l3.41,2.36c4.67,3.19,5.11,5.11,5.11,7.42s-1.59,5.06-6.82,5.06c-4.29,0-8.41-2.58-9.34-7.09a11.09,11.09,0,0,1-.28-1.7c-.06-.45-.11-.94-.49-.94s-.55.33-.66,1.32a70.13,70.13,0,0,0-.33,8.08c0,1.1.27,1.82,1.21,2.2,2.14,1,5.05,1.54,9.18,1.54a18.36,18.36,0,0,0,9.56-2.36,11.18,11.18,0,0,0,5.83-10C79.61,71.15,77.2,67.74,69.5,62.63Z"/><circle class="cls-1" cx="82.65" cy="86.07" r="2.49"/></svg>