<svg id="Layer_1" data-name="Layer 1" xmlns="http://www.w3.org/2000/svg" viewBox="0 0 109.23 124.15"><defs><style>.cls-1{fill:#fff;}</style></defs><title>LEGAL SPACE LS ICON</title><path class="cls-1" d="M54.61,122.24l-11-4.41a66.42,66.42,0,0,1-41.92-62V23.12L54.61,1.92l52.93,21.2V55.87a66.42,66.42,0,0,1-41.92,62ZM7.69,27.18V55.87a60.46,60.46,0,0,0,38.15,56.39l8.77,3.51,8.78-3.51a60.46,60.46,0,0,0,38.15-56.39V27.18L54.61,8.38Z"/><path class="cls-1" d="M59.53,70.54a22,22,0,0,1-3.61-3.75,18.48,18.48,0,0,1-5.27.45c-4.57,0-5.61-.28-6.38-1.32-.94-1.16-.77-5.11-.77-10.67V46.07c0-9.07,0-10.17.16-11.93.11-1.93.5-3,2-3.24a12.55,12.55,0,0,1,1.87-.22c.77,0,1.32-.11,1.32-.61,0-.33-.33-.49-1.32-.49-2,0-8.8.16-9.29.16-2.15,0-5-.16-8.14-.16-1.1,0-1.65.11-1.65.55s.55.55,1.16.55a10.21,10.21,0,0,1,2.14.27c1.38.39,1.76,1.32,1.87,2.86.11,1.76.17,2.75.17,11.71V55.2c0,3.41-.06,6.71-.17,8.91-.16,4.39-.22,5.38-2.2,5.71a17.75,17.75,0,0,1-1.87.22c-.77,0-1.1.17-1.1.5,0,.49.44.6,1.21.6,3,0,6-.16,8.58-.16,5.83,0,10.94.33,18.53.33C58.49,71.31,59.12,71.26,59.53,70.54Z"/><path class="cls-1" d="M69.18,63.61l-2.8-1.87C62.64,59.22,62,57.07,62,55.2c0-2.53,1.66-5.06,6.17-5.06,4,0,6.48,1.87,7.53,3.63a7.77,7.77,0,0,1,1,3.19c.11.88.33,1,.6,1,.44,0,.61-.38.61-1.37,0-4.89.11-6,.22-7.75,0-.44-.17-.61-.72-.77a22,22,0,0,0-2.69-.66,30.42,30.42,0,0,0-6.33-.55c-8.79,0-14,5.11-14,11.44,0,4.83,1.87,8.68,8.58,13.41l3.41,2.36c4.68,3.19,5.11,5.12,5.11,7.43s-1.59,5.06-6.81,5.06c-4.29,0-8.42-2.59-9.35-7.1A9.74,9.74,0,0,1,55,77.8c-.06-.44-.12-.94-.5-.94s-.55.33-.66,1.32a70.13,70.13,0,0,0-.33,8.08c0,1.11.28,1.82,1.21,2.2,2.14,1,5.06,1.54,9.18,1.54a18.41,18.41,0,0,0,9.57-2.36,11.2,11.2,0,0,0,5.83-10C79.3,72.14,76.88,68.73,69.18,63.61Z"/><circle class="cls-1" cx="82.33" cy="87.05" r="2.49"/></svg>